HIERARCHY
ROOT hip
{
  OFFSET 0 0 0
  CHANNELS 6 Xposition Yposition Zposition Zrotation Yrotation Xrotation
  JOINT abdomen
  {
    OFFSET 0 20.6881 -0.73152
    CHANNELS 3 Zrotation Xrotation Yrotation
    JOINT chest
    {
      OFFSET 0 11.7043 -0.48768
      CHANNELS 3 Zrotation Xrotation Yrotation
      JOINT neck
      {
        OFFSET 0 22.1894 -2.19456
        CHANNELS 3 Zrotation Xrotation Yrotation
        JOINT head
        {
          OFFSET -0.24384 7.07133 1.2192
          CHANNELS 3 Zrotation Xrotation Yrotation
          JOINT leftEye
          {
            OFFSET 4.14528 8.04674 8.04672
            CHANNELS 3 Zrotation Xrotation Yrotation
            End Site
            {
              OFFSET 1 0 0
            }
          }
          JOINT rightEye
          {
            OFFSET -3.6576 8.04674 8.04672
            CHANNELS 3 Zrotation Xrotation Yrotation
            End Site
            {
              OFFSET 1 0 0
            }
          }
        }
      }
      JOINT rCollar
      {
        OFFSET -2.68224 19.2634 -4.8768
        CHANNELS 3 Zrotation Xrotation Yrotation
        JOINT rShldr
        {
          OFFSET -8.77824 -1.95073 1.46304
          CHANNELS 3 Zrotation Xrotation Yrotation
          JOINT rForeArm
          {
            OFFSET -28.1742 -1.7115 0.48768
            CHANNELS 3 Zrotation Xrotation Yrotation
            JOINT rHand
            {
              OFFSET -22.5879 0.773209 7.07136
              CHANNELS 3 Zrotation Xrotation Yrotation
              JOINT rThumb1
              {
                OFFSET -1.2192 -0.487915 3.41376
                CHANNELS 3 Zrotation Xrotation Yrotation
                JOINT rThumb2
                {
                  OFFSET -3.37035 -0.52449 3.41376
                  CHANNELS 3 Zrotation Xrotation Yrotation
                  End Site
                  {
                    OFFSET -1.78271 -1.18214 1.43049
                  }
                }
              }
              JOINT rIndex1
              {
                OFFSET -7.75947 0.938293 5.60832
                CHANNELS 3 Zrotation Xrotation Yrotation
                JOINT rIndex2
                {
                  OFFSET -2.54057 -0.884171 1.56538
                  CHANNELS 3 Zrotation Xrotation Yrotation
                  End Site
                  {
                    OFFSET -1.62519 -0.234802 1.16502
                  }
                }
              }
              JOINT rMid1
              {
                OFFSET -8.24714 1.18213 3.41376
                CHANNELS 3 Zrotation Xrotation Yrotation
                JOINT rMid2
                {
                  OFFSET -3.10165 -0.590103 1.0647
                  CHANNELS 3 Zrotation Xrotation Yrotation
                  End Site
                  {
                    OFFSET -2.48547 -0.328903 0.83742
                  }
                }
              }
              JOINT rRing1
              {
                OFFSET -8.82822 0.546677 1.51678
                CHANNELS 3 Zrotation Xrotation Yrotation
                JOINT rRing2
                {
                  OFFSET -2.60934 -0.819778 -0.0198488
                  CHANNELS 3 Zrotation Xrotation Yrotation
                  End Site
                  {
                    OFFSET -2.33842 -0.294052 0.168128
                  }
                }
              }
              JOINT rPinky1
              {
                OFFSET -8.27202 -0.0477905 -0.4584
                CHANNELS 3 Zrotation Xrotation Yrotation
                JOINT rPinky2
                {
                  OFFSET -1.82734 -0.647385 -0.700984
                  CHANNELS 3 Zrotation Xrotation Yrotation
                  End Site
                  {
                    OFFSET -1.69225 -0.51767 -0.607171
                  }
                }
              }
            }
          }
        }
      }
      JOINT lCollar
      {
        OFFSET 2.68224 19.2634 -4.8768
        CHANNELS 3 Zrotation Xrotation Yrotation
        JOINT lShldr
        {
          OFFSET 8.77824 -1.95073 1.46304
          CHANNELS 3 Zrotation Xrotation Yrotation
          JOINT lForeArm
          {
            OFFSET 28.1742 -1.7115 0.48768
            CHANNELS 3 Zrotation Xrotation Yrotation
            JOINT lHand
            {
              OFFSET 22.5879 0.773209 7.07136
              CHANNELS 3 Zrotation Xrotation Yrotation
              JOINT lThumb1
              {
                OFFSET 1.2192 -0.487915 3.41376
                CHANNELS 3 Zrotation Xrotation Yrotation
                JOINT lThumb2
                {
                  OFFSET 3.37035 -0.52449 3.41376
                  CHANNELS 3 Zrotation Xrotation Yrotation
                  End Site
                  {
                    OFFSET 1.78271 -1.18214 1.43049
                  }
                }
              }
              JOINT lIndex1
              {
                OFFSET 7.75947 0.938293 5.60832
                CHANNELS 3 Zrotation Xrotation Yrotation
                JOINT lIndex2
                {
                  OFFSET 2.54057 -0.884171 1.56538
                  CHANNELS 3 Zrotation Xrotation Yrotation
                  End Site
                  {
                    OFFSET 1.62519 -0.234802 1.16502
                  }
                }
              }
              JOINT lMid1
              {
                OFFSET 8.24714 1.18213 3.41376
                CHANNELS 3 Zrotation Xrotation Yrotation
                JOINT lMid2
                {
                  OFFSET 3.10165 -0.590103 1.0647
                  CHANNELS 3 Zrotation Xrotation Yrotation
                  End Site
                  {
                    OFFSET 2.48547 -0.328903 0.83742
                  }
                }
              }
              JOINT lRing1
              {
                OFFSET 8.82822 0.546677 1.51678
                CHANNELS 3 Zrotation Xrotation Yrotation
                JOINT lRing2
                {
                  OFFSET 2.60934 -0.819778 -0.0198488
                  CHANNELS 3 Zrotation Xrotation Yrotation
                  End Site
                  {
                    OFFSET 2.33842 -0.294052 0.168128
                  }
                }
              }
              JOINT lPinky1
              {
                OFFSET 8.27202 -0.0477905 -0.4584
                CHANNELS 3 Zrotation Xrotation Yrotation
                JOINT lPinky2
                {
                  OFFSET 1.82734 -0.647385 -0.700984
                  CHANNELS 3 Zrotation Xrotation Yrotation
                  End Site
                  {
                    OFFSET 1.69225 -0.51767 -0.607171
                  }
                }
              }
            }
          }
        }
      }
    }
  }
  JOINT rButtock
  {
    OFFSET -8.77824 4.35084 1.2192
    CHANNELS 3 Zrotation Xrotation Yrotation
    JOINT rThigh
    {
      OFFSET 0 -1.70687 -2.19456
      CHANNELS 3 Zrotation Xrotation Yrotation
      JOINT rShin
      {
        OFFSET 0 -36.8199 0.73152
        CHANNELS 3 Zrotation Xrotation Yrotation
        JOINT rFoot
        {
          OFFSET 0.73152 -45.1104 -5.12064
          CHANNELS 3 Zrotation Xrotation Yrotation
          End Site
          {
            OFFSET -1.1221 -3.69964 12.103
          }
        }
      }
    }
  }
  JOINT lButtock
  {
    OFFSET 8.77824 4.35084 1.2192
    CHANNELS 3 Zrotation Xrotation Yrotation
    JOINT lThigh
    {
      OFFSET 0 -1.70687 -2.19456
      CHANNELS 3 Zrotation Xrotation Yrotation
      JOINT lShin
      {
        OFFSET 0 -36.8199 0.73152
        CHANNELS 3 Zrotation Xrotation Yrotation
        JOINT lFoot
        {
          OFFSET -0.73152 -45.1104 -5.12064
          CHANNELS 3 Zrotation Xrotation Yrotation
          End Site
          {
            OFFSET 1.1221 -3.69964 12.103
          }
        }
      }
    }
  }
}
MOTION
Frames: 8
Frame Time:	0.06666666
-11.0105 85.1388 220.582 0.0 0.0 0.0 0.410591 -0.00336426 0.0117807 0.113459 -0.00539524 0.0196594 1.07214e-15 -1.59028e-15 -6.83322e-17 3.2582e-15 3.18055e-15 -2.00338e-16 -0.0 0.0 0.0 -0.0 0.0 0.0 5.45423e-16 1.28123e-17 9.93923e-17 1.38862e-14 2.36057e-16 0.0 1.98586e-13 -4.8901e-14 -3.18055e-14 2.22076e-12 9.98396e-14 -1.46306e-13 5.24721e-12 1.1004e-13 -3.72125e-13 9.0622e-12 1.87653e-13 -6.42472e-13 5.25229e-12 1.11717e-13 -3.72125e-13 7.73091 5.47488 0.417314 5.24936e-12 1.10624e-13 -3.68944e-13 2.90554 0.965183 0.102902 5.25651e-12 1.10425e-13 -3.70535e-13 10.2786 0.731801 0.0259123 5.24633e-12 1.11319e-13 -3.68944e-13 2.22167 -0.733487 -0.20892 5.47928e-16 1.28123e-17 -1.98785e-16 8.78011e-15 1.2424e-16 -1.39149e-15 1.93268e-13 6.63941e-14 -6.36111e-15 2.23203e-12 -1.31943e-14 -1.62208e-13 5.26242e-12 1.15228e-13 -3.72125e-13 9.08327e-12 1.94014e-13 -6.40087e-13 5.25666e-12 1.18078e-13 -3.59403e-13 -7.73091 5.47488 -0.417314 5.26198e-12 1.15593e-13 -3.72125e-13 -2.90554 0.965183 -0.102902 5.25412e-12 1.15891e-13 -3.70535e-13 -10.2786 0.731801 -0.0259123 5.2672e-12 1.15295e-13 -3.81667e-13 -2.22167 -0.733487 0.20892 -2.03217e-16 0.0 -3.88251e-19 0.770585 -4.17183 -0.0656809 -0.00265473 2.00555 -0.018269 -0.461809 2.16687 0.0960981 2.03217e-16 0.0 3.88251e-19 -0.143254 -2.55995 0.0260689 0.00716335 -0.914093 0.0621731 0.453794 3.47458 -0.121228
-10.4776 83.4996 215.058 176.731 -1.4114 -151.533 -7.48532 -33.0254 -3.58688 3.12373 14.5833 -1.31982 -0.403223 12.0511 0.409257 10.7862 -13.5974 0.504662 -0.0 0.0 0.0 -0.0 0.0 0.0 -1.53691e-15 -3.02949e-13 -5.76848e-14 84.3196 3.78846 -4.21761 -14.2816 -7.184 26.1221 -0.00321835 1.61655 0.227253 7.30903e-10 -1.92575e-09 1.64613e-09 1.26801e-09 -3.33032e-09 2.84287e-09 7.30907e-10 -1.92575e-09 1.64612e-09 7.73091 5.47488 0.417314 7.30902e-10 -1.92576e-09 1.64613e-09 2.90554 0.965183 0.102902 7.30912e-10 -1.92576e-09 1.64613e-09 10.2786 0.731801 0.0259123 7.30902e-10 -1.92575e-09 1.64613e-09 2.22167 -0.733487 -0.20892 -1.56611e-15 -3.02947e-13 -5.79085e-14 -76.7279 20.386 -2.15533 10.465 -4.42883 -18.6766 0.0282841 4.79357 -0.675286 1.45594e-09 -3.958e-10 -2.18566e-09 2.50454e-09 -6.88415e-10 -3.78392e-09 1.45594e-09 -3.95802e-10 -2.18565e-09 -7.73091 5.47488 -0.417314 1.45595e-09 -3.95805e-10 -2.18566e-09 -2.90554 0.965183 -0.102902 1.45594e-09 -3.95805e-10 -2.18566e-09 -10.2786 0.731801 -0.0259123 1.45595e-09 -3.95804e-10 -2.18566e-09 -2.22167 -0.733487 0.20892 -2.03217e-16 0.0 -3.88251e-19 1.78396 -27.4865 5.10238 0.0113654 6.27294 0.128272 -2.24025 -14.8736 -6.09402 2.03217e-16 0.0 3.88251e-19 -3.80537 -27.0278 -9.76192 0.0255006 7.9892 -0.101106 1.21788 -4.94003 4.92679
-10.4756 83.5058 215.056 176.674 -1.4525 -151.587 -7.46945 -33.0639 -3.38394 3.11008 14.6595 -1.26174 -0.97702 12.0455 1.0264 13.1142 -12.8075 1.86515 -0.0 0.0 0.0 -0.0 0.0 0.0 -4.45832e-15 -1.27224e-13 2.68359e-14 84.3484 4.12502 -4.18423 -14.3611 -7.24955 26.2835 -0.00304876 1.5764 0.221606 2.94455e-10 4.90494e-10 -8.83876e-11 5.08637e-10 8.50226e-10 -1.5448e-10 2.94459e-10 4.90492e-10 -8.84003e-11 7.73091 5.47488 0.417314 2.94454e-10 4.90491e-10 -8.83876e-11 2.90554 0.965183 0.102902 2.94466e-10 4.90493e-10 -8.83884e-11 10.2786 0.731801 0.0259123 2.94452e-10 4.90495e-10 -8.83844e-11 2.22167 -0.733487 -0.20892 -4.4873e-15 -1.27221e-13 2.66371e-14 -76.537 20.3894 -2.4488 10.4203 -4.40078 -18.5922 0.0281051 4.78001 -0.673365 5.78576e-10 5.88956e-10 6.22749e-10 1.00288e-09 1.02169e-09 1.07567e-09 5.78575e-10 5.88954e-10 6.22756e-10 -7.73091 5.47488 -0.417314 5.7858e-10 5.88953e-10 6.22753e-10 -2.90554 0.965183 -0.102902 5.78573e-10 5.88953e-10 6.22751e-10 -10.2786 0.731801 -0.0259123 5.78581e-10 5.88956e-10 6.22749e-10 -2.22167 -0.733487 0.20892 -2.03217e-16 0.0 -3.88251e-19 1.73733 -27.4939 5.223 0.008655 6.19796 0.127398 -2.267 -14.8242 -6.20818 2.03217e-16 0.0 3.88251e-19 -3.82016 -27.1284 -9.51903 0.0304999 8.06671 -0.101694 1.18058 -4.93138 4.68293
-10.4697 83.5055 215.061 176.677 -1.4422 -151.616 -7.36225 -33.0549 -3.22439 3.25478 14.5486 -1.24391 -1.86656 12.5623 1.38407 15.2017 -12.3741 2.53752 -0.0 0.0 0.0 -0.0 0.0 0.0 -8.76937e-15 1.58232e-13 7.17519e-14 84.1933 4.08722 -4.26236 -14.3833 -7.26781 26.3289 -0.00339409 1.66084 0.233482 -4.86583e-10 2.8972e-09 -2.2931e-09 -8.48539e-10 5.01351e-09 -3.9648e-09 -4.86573e-10 2.8972e-09 -2.29312e-09 7.73091 5.47488 0.417314 -4.86585e-10 2.8972e-09 -2.29311e-09 2.90554 0.965183 0.102902 -4.86572e-10 2.8972e-09 -2.2931e-09 10.2786 0.731801 0.0259123 -4.86582e-10 2.8972e-09 -2.2931e-09 2.22167 -0.733487 -0.20892 -8.90131e-15 1.58233e-13 7.15904e-14 -76.767 20.3436 -2.35196 10.4951 -4.4478 -18.7332 0.030107 4.94972 -0.697387 -8.80892e-10 1.37976e-09 3.74612e-09 -1.50285e-09 2.39545e-09 6.48267e-09 -8.80894e-10 1.37977e-09 3.74613e-09 -7.73091 5.47488 -0.417314 -8.80889e-10 1.37976e-09 3.74612e-09 -2.90554 0.965183 -0.102902 -8.809e-10 1.37977e-09 3.74612e-09 -10.2786 0.731801 -0.0259123 -8.8089e-10 1.37977e-09 3.74612e-09 -2.22167 -0.733487 0.20892 -2.03217e-16 0.0 -3.88251e-19 1.70918 -27.4946 5.23927 0.00771096 6.1898 0.12745 -2.28927 -14.7893 -6.30382 2.03217e-16 0.0 3.88251e-19 -3.82279 -27.1845 -9.36662 0.0256763 8.13007 -0.102609 1.16315 -5.00877 4.57185
-10.4819 83.5029 215.081 176.614 -1.4736 -151.583 -7.23627 -33.0419 -2.98542 3.36132 14.4283 -1.2009 -2.6394 13.0095 1.70179 17.2012 -11.8773 3.06204 -0.0 0.0 0.0 -0.0 0.0 0.0 -1.21596e-14 3.32367e-13 7.32025e-14 84.1146 3.95372 -4.39766 -14.4184 -7.29715 26.3998 -0.00350862 1.69108 0.237735 -8.81467e-10 3.77315e-09 -3.38691e-09 -1.53476e-09 6.5282e-09 -5.85527e-09 -8.8145e-10 3.77314e-09 -3.38693e-09 7.73091 5.47488 0.417314 -8.81468e-10 3.77314e-09 -3.38692e-09 2.90554 0.965183 0.102902 -8.81456e-10 3.77315e-09 -3.38692e-09 10.2786 0.731801 0.0259123 -8.81463e-10 3.77315e-09 -3.38691e-09 2.22167 -0.733487 -0.20892 -1.23911e-14 3.32367e-13 7.30534e-14 -76.9107 20.413 -2.31523 10.5557 -4.48594 -18.8478 0.0320524 5.10361 -0.719187 -1.69728e-09 1.59596e-09 5.12769e-09 -2.9063e-09 2.77114e-09 8.87511e-09 -1.69729e-09 1.59596e-09 5.1277e-09 -7.73091 5.47488 -0.417314 -1.69728e-09 1.59596e-09 5.12769e-09 -2.90554 0.965183 -0.102902 -1.6973e-09 1.59596e-09 5.12769e-09 -10.2786 0.731801 -0.0259123 -1.69729e-09 1.59596e-09 5.12768e-09 -2.22167 -0.733487 0.20892 -2.03217e-16 0.0 -3.88251e-19 1.68364 -27.5132 5.22787 0.00715503 6.20341 0.127934 -2.30824 -14.7892 -6.37454 2.03217e-16 0.0 3.88251e-19 -3.81759 -27.2557 -9.21713 0.0194781 8.20857 -0.103667 1.14261 -5.08411 4.44837
-10.483 83.5021 215.105 176.603 -1.5708 -151.549 -7.1883 -33.0727 -2.48555 3.20657 14.4741 -1.04637 -2.71106 12.6897 2.25156 19.0872 -10.8554 3.86566 -0.0 0.0 0.0 -0.0 0.0 0.0 -9.96082e-15 -8.34979e-15 -3.39487e-14 84.462 3.92143 -4.58913 -14.5724 -7.42607 26.7121 -0.00249203 1.44713 0.203422 4.94684e-10 -7.50826e-10 1.41495e-11 8.54976e-10 -1.2994e-09 2.26623e-11 4.94701e-10 -7.50831e-10 1.41416e-11 7.73091 5.47488 0.417314 4.94684e-10 -7.50827e-10 1.41476e-11 2.90554 0.965183 0.102902 4.9469e-10 -7.50827e-10 1.41491e-11 10.2786 0.731801 0.0259123 4.94686e-10 -7.50825e-10 1.41559e-11 2.22167 -0.733487 -0.20892 -1.01854e-14 -8.34941e-15 -3.41754e-14 -76.3703 20.9055 -2.85374 10.4529 -4.42137 -18.6534 0.0309833 5.01842 -0.707119 4.26397e-10 -4.92416e-11 1.77169e-12 7.37292e-10 -8.66474e-11 2.40163e-12 4.26393e-10 -4.92411e-11 1.78346e-12 -7.73091 5.47488 -0.417314 4.26397e-10 -4.92428e-11 1.77147e-12 -2.90554 0.965183 -0.102902 4.26386e-10 -4.92411e-11 1.77391e-12 -10.2786 0.731801 -0.0259123 4.26398e-10 -4.92398e-11 1.76836e-12 -2.22167 -0.733487 0.20892 -2.03217e-16 0.0 -3.88251e-19 1.61888 -27.6026 5.23798 0.0062652 6.22087 0.128899 -2.31827 -14.8948 -6.36968 2.03217e-16 0.0 3.88251e-19 -3.82995 -27.43 -8.98585 0.0194067 8.35716 -0.104959 1.09465 -5.05874 4.1648
-10.4943 83.4972 215.141 176.531 -1.5548 -151.47 -7.10202 -33.0842 -1.95765 3.00309 14.5228 -0.880192 -2.6668 12.2597 2.73369 20.6761 -9.9273 4.55626 -0.0 0.0 0.0 -0.0 0.0 0.0 -4.18768e-15 -3.05334e-13 -1.24688e-13 84.8324 3.84174 -4.75076 -14.6851 -7.52068 26.9428 -0.00180955 1.21456 0.170721 1.63844e-09 -4.62661e-09 2.95833e-09 2.84175e-09 -8.00554e-09 5.11125e-09 1.63846e-09 -4.62661e-09 2.95833e-09 7.73091 5.47488 0.417314 1.63844e-09 -4.62661e-09 2.95833e-09 2.90554 0.965183 0.102902 1.63844e-09 -4.62661e-09 2.95833e-09 10.2786 0.731801 0.0259123 1.63844e-09 -4.62661e-09 2.95834e-09 2.22167 -0.733487 -0.20892 -4.36035e-15 -3.05333e-13 -1.24986e-13 -75.7576 21.4286 -3.41284 10.363 -4.36493 -18.484 0.0290602 4.86032 -0.684733 2.27296e-09 -1.41807e-09 -4.47207e-09 3.90527e-09 -2.46463e-09 -7.74193e-09 2.27295e-09 -1.41807e-09 -4.47206e-09 -7.73091 5.47488 -0.417314 2.27296e-09 -1.41808e-09 -4.47207e-09 -2.90554 0.965183 -0.102902 2.27295e-09 -1.41808e-09 -4.47207e-09 -10.2786 0.731801 -0.0259123 2.27296e-09 -1.41807e-09 -4.47208e-09 -2.22167 -0.733487 0.20892 -2.03217e-16 0.0 -3.88251e-19 1.59154 -27.6823 5.21655 0.00527775 6.23364 0.129822 -2.33604 -14.9777 -6.39637 2.03217e-16 0.0 3.88251e-19 -3.81863 -27.5661 -8.85365 0.0208808 8.45477 -0.105593 1.05429 -5.01725 3.92292
-10.477 83.508 215.127 176.562 -1.7248 -151.583 -6.84284 -33.0305 -1.62337 2.92073 14.4306 -0.795417 -3.02731 12.2691 2.86229 21.6977 -9.72854 4.78194 -0.0 0.0 0.0 -0.0 0.0 0.0 -3.26506e-15 9.97901e-14 -4.61149e-14 84.8388 3.56974 -4.74035 -14.5654 -7.42024 26.6978 -0.00203846 1.28991 0.181316 2.47823e-10 -6.62859e-10 -4.66906e-10 4.27731e-10 -1.14878e-09 -8.0771e-10 2.47832e-10 -6.62858e-10 -4.66904e-10 7.73091 5.47488 0.417314 2.47823e-10 -6.62856e-10 -4.66902e-10 2.90554 0.965183 0.102902 2.47827e-10 -6.62856e-10 -4.66903e-10 10.2786 0.731801 0.0259123 2.47822e-10 -6.62855e-10 -4.66894e-10 2.22167 -0.733487 -0.20892 -3.33854e-15 9.97894e-14 -4.63696e-14 -75.6529 21.5981 -3.43948 10.469 -4.43157 -18.6835 0.027847 4.75522 -0.669859 2.086e-10 2.50117e-10 2.68692e-10 3.62171e-10 4.31173e-10 4.62707e-10 2.08592e-10 2.50114e-10 2.68704e-10 -7.73091 5.47488 -0.417314 2.08597e-10 2.50112e-10 2.68692e-10 -2.90554 0.965183 -0.102902 2.0859e-10 2.50113e-10 2.68696e-10 -10.2786 0.731801 -0.0259123 2.08604e-10 2.50114e-10 2.68689e-10 -2.22167 -0.733487 0.20892 -2.03217e-16 0.0 -3.88251e-19 1.66758 -27.6771 4.94618 0.00406292 6.18701 0.128505 -2.33513 -14.853 -6.43944 2.03217e-16 0.0 3.88251e-19 -3.7293 -27.5192 -9.09389 0.0218566 8.34383 -0.104006 1.0591 -5.00022 3.95614
